<svg preserveAspectRatio="none" overflow="visible" style="display: block;" width="152.061" height="29.1375" viewBox="0 0 152.061 29.1375" fill="none" xmlns="http://www.w3.org/2000/svg">
<g id="Yandex_Market_cropp_logo 1" clip-path="url(#clip0_0_77)">
<path id="Vector" d="M71.1126 24.5846H74.1174L78.3059 9.01429V24.5846H81.6749V4.00629H77.0311L72.8426 19.1213L68.6541 4.00629H63.9193V24.5846H66.833V9.01429L71.1126 24.5846ZM95.7884 14.3865C95.7884 10.7443 93.9673 9.37851 90.234 9.37851C87.8666 9.37851 86.0455 10.1069 84.9529 10.7443V13.6581C85.8634 12.9296 87.9577 12.2012 89.7788 12.2012C91.5088 12.2012 92.2373 12.8386 92.2373 14.3865V15.206H91.6909C86.3187 15.206 83.8602 17.0271 83.8602 20.0319C83.8602 23.0367 85.6813 24.7667 88.413 24.7667C90.5072 24.7667 91.4178 24.1293 92.0551 23.4009H92.2373C92.2373 23.7651 92.4194 24.3115 92.5104 24.5846H95.9705C95.8794 23.4009 95.7884 22.1261 95.7884 20.9424V14.3865ZM92.2373 21.0335C91.782 21.6709 90.9625 22.2172 89.6877 22.2172C88.2308 22.2172 87.5024 21.3067 87.5024 20.0319C87.5024 18.3019 88.6861 17.6645 91.782 17.6645H92.3283V21.0335H92.2373ZM101.889 9.65167H98.6111V28.8642H102.162V22.8546C103.073 24.2204 104.348 24.8578 105.895 24.8578C109.356 24.8578 111.723 22.1261 111.723 17.1181C111.723 12.1101 109.447 9.37851 106.078 9.37851C104.439 9.37851 103.073 10.1069 102.071 11.5638L101.889 9.65167ZM104.894 22.1261C103.073 22.1261 102.071 20.5782 102.071 17.2092C102.071 13.7491 103.073 12.2012 105.076 12.2012C106.988 12.2012 107.99 13.7491 107.99 17.1181C107.99 20.5782 106.988 22.1261 104.894 22.1261ZM122.741 24.5846H126.747L121.102 16.5718L126.11 9.65167H122.558L117.55 16.5718V9.65167H113.999V24.5846H117.55V17.3003L122.741 24.5846ZM138.584 23.583V20.6693C137.491 21.3977 135.67 22.0351 133.94 22.0351C131.391 22.0351 130.389 20.8514 130.207 18.3019H138.675V16.3897C138.675 11.1996 136.399 9.28746 132.848 9.28746C128.568 9.28746 126.474 12.5654 126.474 17.1181C126.474 22.3083 129.023 24.8578 133.485 24.8578C135.943 24.8578 137.582 24.3115 138.584 23.583ZM132.848 12.2012C134.578 12.2012 135.124 13.6581 135.124 15.4792V15.7523H130.207C130.298 13.3849 131.209 12.2012 132.848 12.2012ZM151.332 12.4744V9.65167H139.495V12.4744H143.683V24.5846H147.234V12.4744H151.332Z" fill="#D2D2D2"/>
<path id="Vector_2" d="M42.888 28.2267C50.4455 28.2267 56.5462 22.1261 56.5462 14.5686C56.5462 7.01103 50.4455 0.910373 42.888 0.910373C35.3304 0.910373 29.2298 7.01103 29.2298 14.5686C29.1387 22.1261 35.3304 28.2267 42.888 28.2267Z" fill="#D2D2D2"/>
<path id="Vector_3" d="M13.6582 28.2267C21.2014 28.2267 27.3163 22.1118 27.3163 14.5686C27.3163 7.02535 21.2014 0.910373 13.6582 0.910373C6.11496 0.910373 -1.44111e-05 7.02535 -1.44111e-05 14.5686C-1.44111e-05 22.1118 6.11496 28.2267 13.6582 28.2267Z" fill="#D2D2D2"/>
<path id="Vector_4" d="M15.6623 8.55879H14.2965C11.9291 8.55879 10.7454 9.7425 10.7454 11.5636C10.7454 13.5668 11.5649 14.5684 13.2949 15.7521L14.6607 16.7537L10.7454 22.8544H7.55847L11.2917 17.3C9.1064 15.7521 7.92269 14.2952 7.92269 11.7457C7.92269 8.55879 10.108 6.37348 14.2965 6.37348H18.485V22.7633H15.7534V8.55879H15.6623Z" fill="white"/>
<g id="Clip path group">
<mask id="mask0_0_77" style="mask-type:luminance" maskUnits="userSpaceOnUse" x="29" y="0" width="28" height="29">
<g id="a">
<path id="Vector_5" d="M42.8876 28.2267C50.4451 28.2267 56.5458 22.1261 56.5458 14.5686C56.5458 7.01103 50.4451 0.910373 42.8876 0.910373C35.3301 0.910373 29.2294 7.01103 29.2294 14.5686C29.1384 22.1261 35.3301 28.2267 42.8876 28.2267Z" fill="white"/>
</g>
</mask>
<g mask="url(#mask0_0_77)">
<path id="Vector_6" d="M36.1486 8.37646L24.1294 24.1289L27.3163 27.7711L36.2397 15.934L35.3291 22.3989L40.3371 24.1289L46.4378 14.3861C46.1646 16.2072 45.7094 20.3957 49.7158 21.6704C55.9985 23.5826 61.4618 12.2918 64.0113 6.55537L60.3691 4.64323C57.5464 10.5618 53.1758 17.1177 51.4458 16.6624C49.7158 16.2072 51.2637 10.6528 52.2653 7.1017V7.01065L46.711 5.0985L40.064 15.934L40.9745 10.0154L36.1486 8.37646Z" fill="white"/>
</g>
</g>
</g>
<defs>
<clipPath id="clip0_0_77">
<rect width="152.061" height="29.1375" fill="white"/>
</clipPath>
</defs>
</svg>
