<svg preserveAspectRatio="none" overflow="visible" style="display: block;" width="88.5" height="23.523" viewBox="0 0 88.5 23.523" fill="none" xmlns="http://www.w3.org/2000/svg">
<circle cx="0.75" cy="0" r="2.096" fill="#FAFAFA" stroke="#9B9B9B" stroke-width="1.5"/>
<path id="Vector 2" d="M88.2803 18.5303C88.5732 18.2374 88.5732 17.7626 88.2803 17.4697L83.5074 12.6967C83.2145 12.4038 82.7396 12.4038 82.4467 12.6967C82.1538 12.9896 82.1538 13.4645 82.4467 13.7574L86.6893 18L82.4467 22.2426C82.1538 22.5355 82.1538 23.0104 82.4467 23.3033C82.7396 23.5962 83.2145 23.5962 83.5074 23.3033L88.2803 18.5303ZM0.75 0H0V11.1351H0.75H1.5V0H0.75ZM7.61492 18V18.75H56.7637V18V17.25H7.61492V18ZM56.7637 18V18.75H87.75V18V17.25H56.7637V18ZM0.75 11.1351H0C0 15.3407 3.40931 18.75 7.61492 18.75V18V17.25C4.23774 17.25 1.5 14.5123 1.5 11.1351H0.75Z" fill="#9B9B9B"/>
</svg>
