<svg preserveAspectRatio="none" width="100%" height="100%" overflow="visible" style="display: block;" viewBox="0 0 13.73 13.73" fill="none" xmlns="http://www.w3.org/2000/svg">
<g id="24 / Status / HelpCircleOutline">
<g id="icon">
<path d="M5.94849 4.37901C5.76137 4.52455 5.5778 4.80849 5.5778 5.43478C5.5778 5.67175 5.38571 5.86384 5.14874 5.86384C4.91178 5.86384 4.71968 5.67175 4.71968 5.43478C4.71968 4.63086 4.96518 4.05669 5.42165 3.70165C5.85631 3.36358 6.4026 3.28947 6.86499 3.28947C7.32738 3.28947 7.87367 3.36358 8.30833 3.70165C8.7648 4.05669 9.0103 4.63086 9.0103 5.43478C9.0103 6.3747 8.41634 6.84564 7.98055 7.17248C7.49593 7.53595 7.29405 7.69266 7.29405 8.00915C7.29405 8.24612 7.10195 8.43822 6.86499 8.43822C6.62802 8.43822 6.43593 8.24612 6.43593 8.00915C6.43593 7.24365 6.99729 6.83084 7.37712 6.55151C7.40796 6.52884 7.43763 6.50702 7.46568 6.48598C7.88801 6.16924 8.15217 5.92507 8.15217 5.43478C8.15217 4.80849 7.96861 4.52455 7.78149 4.37901C7.57256 4.21651 7.26072 4.1476 6.86499 4.1476C6.46925 4.1476 6.15742 4.21651 5.94849 4.37901Z" fill="var(--fill-0, #080808)"/>
<path d="M7.43707 9.43936C7.43707 9.75531 7.18094 10.0114 6.86499 10.0114C6.54904 10.0114 6.29291 9.75531 6.29291 9.43936C6.29291 9.12341 6.54904 8.86728 6.86499 8.86728C7.18094 8.86728 7.43707 9.12341 7.43707 9.43936Z" fill="var(--fill-0, #080808)"/>
<path fill-rule="evenodd" clip-rule="evenodd" d="M6.86499 1.14416C3.70547 1.14416 1.14416 3.70547 1.14416 6.86499C1.14416 10.0245 3.70547 12.5858 6.86499 12.5858C10.0245 12.5858 12.5858 10.0245 12.5858 6.86499C12.5858 3.70547 10.0245 1.14416 6.86499 1.14416ZM2.00229 6.86499C2.00229 4.17939 4.17939 2.00229 6.86499 2.00229C9.55058 2.00229 11.7277 4.17939 11.7277 6.86499C11.7277 9.55058 9.55058 11.7277 6.86499 11.7277C4.17939 11.7277 2.00229 9.55058 2.00229 6.86499Z" fill="var(--fill-0, #080808)"/>
</g>
</g>
</svg>
