<svg preserveAspectRatio="none" width="100%" height="100%" overflow="visible" style="display: block;" viewBox="0 0 22.8833 22.8833" fill="none" xmlns="http://www.w3.org/2000/svg">
<g id="24 / Other / KeyFill" filter="url(#filter0_i_0_79)">
<path id="icon" fill-rule="evenodd" clip-rule="evenodd" d="M20.0229 8.34287C20.0229 11.3707 17.5683 13.8253 14.5404 13.8253C13.4121 13.8253 12.3634 13.4845 11.4917 12.9002C11.325 12.7884 11.0894 12.9027 11.0894 13.1034L11.0894 15.2556C11.0894 15.3873 10.9827 15.494 10.851 15.494H8.81945C8.6878 15.494 8.58108 15.6007 8.58108 15.7324L8.58108 17.401C8.58108 17.5327 8.47435 17.6394 8.3427 17.6394L6.01479 17.6393C5.88314 17.6393 5.77641 17.746 5.77641 17.8777L5.77641 20.2063C5.77641 20.338 5.66969 20.4447 5.53804 20.4447H3.09878C2.96713 20.4447 2.86041 20.338 2.86041 20.2063L2.86056 16.1476C2.86056 16.0844 2.88568 16.0238 2.93038 15.9791L9.12802 9.78143C9.18733 9.72212 9.21071 9.6361 9.19226 9.55428C9.10436 9.16457 9.05797 8.75914 9.05797 8.34287C9.05797 5.31499 11.5125 2.86041 14.5404 2.86041C17.5683 2.86041 20.0229 5.31499 20.0229 8.34287ZM15.7323 8.58124C16.5221 8.58124 17.1625 7.94091 17.1625 7.15103C17.1625 6.36115 16.5221 5.72082 15.7323 5.72082C14.9424 5.72082 14.3021 6.36115 14.3021 7.15103C14.3021 7.94091 14.9424 8.58124 15.7323 8.58124Z" fill="var(--fill-0, white)"/>
</g>
<defs>
<filter id="filter0_i_0_79" x="0" y="0" width="23.5189" height="23.5189" filterUnits="userSpaceOnUse" color-interpolation-filters="sRGB">
<feFlood flood-opacity="0" result="BackgroundImageFix"/>
<feBlend mode="normal" in="SourceGraphic" in2="BackgroundImageFix" result="shape"/>
<feColorMatrix in="SourceAlpha" type="matrix" values="0 0 0 0 0 0 0 0 0 0 0 0 0 0 0 0 0 0 127 0" result="hardAlpha"/>
<feOffset dx="0.635647" dy="0.635647"/>
<feGaussianBlur stdDeviation="0.317824"/>
<feComposite in2="hardAlpha" operator="arithmetic" k2="-1" k3="1"/>
<feColorMatrix type="matrix" values="0 0 0 0 0 0 0 0 0 0 0 0 0 0 0 0 0 0 0.35 0"/>
<feBlend mode="normal" in2="shape" result="effect1_innerShadow_0_79"/>
</filter>
</defs>
</svg>
