<svg preserveAspectRatio="none" width="100%" height="100%" overflow="visible" style="display: block;" viewBox="0 0 10.984 6.99452" fill="none" xmlns="http://www.w3.org/2000/svg">
<path id="Cellular Connection" fill-rule="evenodd" clip-rule="evenodd" d="M10.984 0.655736C10.984 0.293583 10.7108 0 10.3738 0H9.76354C9.42652 0 9.15332 0.293583 9.15332 0.655736V6.33878C9.15332 6.70093 9.42652 6.99452 9.76354 6.99452H10.3738C10.7108 6.99452 10.984 6.70093 10.984 6.33878V0.655736ZM6.73106 1.3989H7.34128C7.67829 1.3989 7.9515 1.69953 7.9515 2.07038V6.32304C7.9515 6.69389 7.67829 6.99452 7.34128 6.99452H6.73106C6.39404 6.99452 6.12083 6.69389 6.12083 6.32304V2.07038C6.12083 1.69953 6.39404 1.3989 6.73106 1.3989ZM4.25293 2.91438H3.6427C3.30569 2.91438 3.03248 3.21883 3.03248 3.5944V6.31449C3.03248 6.69005 3.30569 6.99451 3.6427 6.99451H4.25293C4.58994 6.99451 4.86315 6.69005 4.86315 6.31449V3.5944C4.86315 3.21883 4.58994 2.91438 4.25293 2.91438ZM1.22044 4.31329H0.610221C0.273205 4.31329 0 4.61339 0 4.98359V6.32421C0 6.69441 0.273205 6.99452 0.610221 6.99452H1.22044C1.55746 6.99452 1.83066 6.69441 1.83066 6.32421V4.98359C1.83066 4.61339 1.55746 4.31329 1.22044 4.31329Z" fill="var(--fill-0, white)"/>
</svg>
