<svg preserveAspectRatio="none" width="100%" height="100%" overflow="visible" style="display: block;" viewBox="0 0 9.80645 7.05281" fill="none" xmlns="http://www.w3.org/2000/svg">
<path id="Wifi" fill-rule="evenodd" clip-rule="evenodd" d="M4.90349 1.41092C6.32632 1.41098 7.69475 1.93848 8.72593 2.88441C8.80358 2.95744 8.9277 2.95652 9.00418 2.88235L9.74645 2.15954C9.78517 2.12192 9.80676 2.07096 9.80644 2.01794C9.80612 1.96492 9.78391 1.9142 9.74474 1.87702C7.03821 -0.625674 2.76835 -0.625674 0.0618169 1.87702C0.022611 1.91418 0.000365999 1.96487 4.47596e-06 2.01789C-0.000357047 2.07092 0.0211947 2.12189 0.0598906 2.15954L0.802376 2.88235C0.878805 2.95663 1.00302 2.95755 1.08062 2.88441C2.11194 1.93842 3.48052 1.41091 4.90349 1.41092ZM4.90157 3.82526C5.67807 3.82521 6.42686 4.11797 7.00244 4.64665C7.08029 4.72168 7.20293 4.72005 7.27882 4.64298L8.01525 3.88823C8.05403 3.84864 8.07555 3.79493 8.07499 3.73913C8.07443 3.68332 8.05184 3.63007 8.01227 3.59129C6.25951 1.93749 3.54513 1.93749 1.79236 3.59129C1.75277 3.63007 1.73018 3.68335 1.72966 3.73917C1.72914 3.795 1.75073 3.8487 1.7896 3.88823L2.52582 4.64298C2.60171 4.72005 2.72434 4.72168 2.80219 4.64665C3.37739 4.11832 4.12559 3.82559 4.90157 3.82526ZM6.34575 5.4234C6.34685 5.48367 6.32565 5.54178 6.28715 5.584L5.04192 6.98831C5.00541 7.02958 4.95565 7.05281 4.90372 7.05281C4.85179 7.05281 4.80203 7.02958 4.76552 6.98831L3.52008 5.584C3.48161 5.54175 3.46044 5.48362 3.46159 5.42335C3.46273 5.36308 3.48607 5.30601 3.52611 5.26561C4.32136 4.51396 5.48608 4.51396 6.28133 5.26561C6.32134 5.30604 6.34465 5.36313 6.34575 5.4234Z" fill="var(--fill-0, white)"/>
</svg>
