<svg preserveAspectRatio="none" width="100%" height="100%" overflow="visible" style="display: block;" viewBox="0 0 156.184 226.008" fill="none" xmlns="http://www.w3.org/2000/svg">
<g id="Lunar">
<path id="Rectangle 319" d="M6.47308 84.111C7.90853 63.884 22.3947 47.0093 42.2729 43.0034C51.9915 41.045 62.375 39.3204 71.1226 38.7052C80.5133 38.0448 91.943 38.387 102.46 39.059C121.691 40.2878 137.748 53.7066 142.451 72.3935C145.927 86.2049 149.352 102.375 150.333 115.569C151.387 129.758 151.473 137.817 150.469 151.993C150.244 155.16 149.86 158.667 149.39 162.248C146.989 180.528 133.303 195.147 115.298 199.113C104.947 201.392 93.5091 203.495 84.0163 204.207C74.5053 204.921 62.9392 204.54 52.2762 203.796C32.6534 202.427 16.5284 188.307 12.3185 169.092C9.47866 156.13 6.77046 141.329 5.98256 129.2C5.12278 115.964 5.39599 108.492 5.85695 95.2449C5.97638 91.8126 6.19651 88.0082 6.47308 84.111Z" fill="var(--fill-0, #FF363A)"/>
<path id="Vector" d="M87.0351 21.251L42.501 25.1997L42.4951 42.6524C42.4951 42.6524 57.3408 39.6821 68.0251 38.4211C77.7936 37.2681 93.4974 38.4211 93.4974 38.4211L87.0351 21.251Z" fill="var(--fill-0, black)" stroke="var(--stroke-0, black)"/>
<path id="Vector " d="M105.838 217.51L61.3682 222.131L57.9204 204.412C57.9204 204.412 73.172 205.083 83.9006 204.282C93.7096 203.55 107.752 201.362 107.752 201.362L105.838 217.51Z" fill="var(--fill-0, black)" stroke="var(--stroke-0, black)"/>
<path id="Vector _2" d="M46.6573 25.5C46.6573 25.5 45.4442 18.8005 46.6573 14.8461C47.8047 11.1059 49.3973 9.28546 52.1065 6.61356C54.965 3.79447 56.9747 2.36454 60.7346 1.28635C64.5023 0.20595 66.9417 0.270308 70.725 1.28635C74.6504 2.34053 77.0424 3.46063 79.8072 6.61356C82.1372 9.27054 83.202 11.284 83.8942 14.8461C84.3981 17.4387 83.8942 21.626 83.8942 21.626" stroke="var(--stroke-0, black)"/>
<path id="Vector_2" d="M128.977 56.1006C128.977 56.1006 131.677 60.2319 133.106 63.1905C134.486 66.0473 135.984 70.9075 135.984 70.9075" stroke="var(--stroke-0, black)" stroke-width="0.8"/>
<path id="Vector _3" d="M141.715 91.6025C141.715 91.6025 143.339 96.1544 143.907 99.1834C144.549 102.604 144.594 108.069 144.594 108.069" stroke="var(--stroke-0, black)" stroke-width="0.8"/>
<path id="Vector _4" d="M145.944 125.095C145.944 125.095 146.376 129.588 146.419 132.54C146.467 135.873 146.075 141.124 146.075 141.124" stroke="var(--stroke-0, black)" stroke-width="0.8"/>
<path id="Vector _5" d="M146.281 154.202C146.281 154.202 146.005 158.708 145.585 161.63C145.111 164.929 143.903 170.054 143.903 170.054" stroke="var(--stroke-0, black)" stroke-width="0.8"/>
</g>
</svg>
