<svg preserveAspectRatio="none" width="100%" height="100%" overflow="visible" style="display: block;" viewBox="0 0 66 95.5" fill="none" xmlns="http://www.w3.org/2000/svg">
<g id="Lunar">
<path id="Rectangle 319" d="M2.47502 40.8336C2.87213 29.3366 11.2847 19.6144 22.6288 17.7046C25.2153 17.2692 27.7674 16.9263 30.0549 16.7642C46.2551 15.6165 60.3975 27.9414 62.8783 43.9903C63.1732 45.8983 63.3995 47.7523 63.5274 49.4857C63.973 55.5261 64.0094 58.9568 63.5847 64.9918C62.8443 75.5144 54.7002 83.9803 44.339 85.9586C41.2819 86.5423 38.2061 87.0153 35.5035 87.2197C19.0652 88.4625 4.87193 75.5089 2.89367 59.1438C2.73262 57.8116 2.60736 56.5178 2.5281 55.2886C2.16478 49.654 2.28023 46.4731 2.47502 40.8336Z" fill="var(--fill-0, #FF363A)"/>
<path id="Vector" d="M36.7786 9.33345L17.9595 11.0144L17.957 18.4442C17.957 18.4442 24.2305 17.1797 28.7454 16.6429C32.8734 16.1521 39.5095 16.6429 39.5095 16.6429L36.7786 9.33345Z" fill="var(--fill-0, black)" stroke="var(--stroke-0, black)"/>
<path id="Vector " d="M44.7248 91.8823L25.9331 93.8496L24.4761 86.3065C24.4761 86.3065 30.9211 86.5922 35.4548 86.2513C39.5999 85.9396 45.5337 85.0082 45.5337 85.0082L44.7248 91.8823Z" fill="var(--fill-0, black)" stroke="var(--stroke-0, black)"/>
<path id="Vector _2" d="M19.7171 11.1427C19.7171 11.1427 19.2045 8.29063 19.7171 6.60722C20.2019 5.01498 20.875 4.24003 22.0198 3.10259C23.2277 1.90248 24.077 1.29375 25.6659 0.834756C27.258 0.374821 28.2888 0.402219 29.8876 0.834756C31.5464 1.28353 32.5572 1.76036 33.7255 3.10259C34.7101 4.23368 35.1601 5.09083 35.4526 6.60722C35.6655 7.71092 35.4526 9.49347 35.4526 9.49347" stroke="var(--stroke-0, black)"/>
<path id="Vector_2" d="M46.2471 27.1872L46.6076 27.0147L46.2471 27.1872ZM44.502 24.1689C44.1667 24.3864 44.1667 24.3864 44.1667 24.3864C44.1667 24.3864 44.1667 24.3864 44.1667 24.3864C44.1667 24.3864 44.1668 24.3865 44.1668 24.3866C44.1669 24.3868 44.1671 24.387 44.1674 24.3874C44.1679 24.3882 44.1686 24.3894 44.1697 24.391C44.1718 24.3942 44.1749 24.3991 44.179 24.4055C44.1873 24.4184 44.1997 24.4375 44.2156 24.4624C44.2476 24.5123 44.294 24.5851 44.3517 24.6765C44.4671 24.8594 44.6272 25.1164 44.806 25.4123C45.1653 26.0069 45.5934 26.748 45.8866 27.3596L46.2471 27.1872L46.6076 27.0147C46.297 26.3668 45.8525 25.5988 45.4902 24.9992C45.3082 24.698 45.1452 24.4366 45.0278 24.2503C44.969 24.1572 44.9215 24.0828 44.8887 24.0315C44.8723 24.0059 44.8595 23.986 44.8508 23.9725C44.8464 23.9658 44.8431 23.9606 44.8408 23.9571C44.8397 23.9553 44.8388 23.9539 44.8382 23.953C44.8379 23.9526 44.8377 23.9522 44.8375 23.9519C44.8374 23.9518 44.8374 23.9517 44.8373 23.9517C44.8373 23.9516 44.8373 23.9516 44.8372 23.9516C44.8372 23.9515 44.8372 23.9515 44.502 24.1689ZM46.2471 27.1872L45.8866 27.3596C46.1676 27.9458 46.4655 28.7489 46.6958 29.4158C46.8103 29.7472 46.9067 30.041 46.9745 30.2519C47.0084 30.3573 47.0351 30.4419 47.0532 30.4999C47.0623 30.529 47.0693 30.5514 47.0739 30.5664C47.0762 30.5739 47.078 30.5796 47.0791 30.5834C47.0797 30.5853 47.0802 30.5866 47.0804 30.5876C47.0806 30.588 47.0807 30.5883 47.0807 30.5885C47.0808 30.5886 47.0808 30.5887 47.0808 30.5888C47.0808 30.5888 47.0808 30.5888 47.0808 30.5888C47.0808 30.5888 47.0808 30.5888 47.4632 30.4723C47.8455 30.3559 47.8455 30.3559 47.8455 30.3558C47.8455 30.3558 47.8455 30.3558 47.8455 30.3557C47.8454 30.3557 47.8454 30.3555 47.8454 30.3554C47.8453 30.3551 47.8451 30.3547 47.845 30.3541C47.8446 30.353 47.8441 30.3514 47.8435 30.3494C47.8422 30.3452 47.8404 30.3391 47.8379 30.3312C47.833 30.3153 47.8258 30.2921 47.8164 30.2622C47.7977 30.2024 47.7704 30.1158 47.7358 30.0082C47.6667 29.7932 47.5684 29.4938 47.4517 29.1558C47.2197 28.4842 46.9096 27.6447 46.6076 27.0147L46.2471 27.1872Z" fill="var(--stroke-0, black)"/>
</g>
</svg>
