<svg preserveAspectRatio="none" width="100%" height="100%" overflow="visible" style="display: block;" viewBox="0 0 89 114.692" fill="none" xmlns="http://www.w3.org/2000/svg">
<g id="Lattern">
<ellipse id="Ellipse " cx="44.5" cy="49.5" rx="44.5" ry="35" fill="var(--fill-0, #FF363A)"/>
<path id="Vector" d="M57.0652 10.5L31.442 11.0714L28 17.5C28 17.5 37.2326 16.6923 44.2726 16.6923H61L57.0652 10.5Z" fill="var(--fill-0, black)" stroke="var(--stroke-0, black)"/>
<path id="Vector " d="M59.859 87.4968L31.0631 87.7521L29.2405 82.0614C29.2405 82.0614 39.1166 82.5444 46.1113 82.4304C52.5064 82.3262 61.7039 81.7706 61.7039 81.7706L59.859 87.4968Z" fill="var(--fill-0, black)" stroke="var(--stroke-0, black)"/>
<path id="Vector_2" d="M73.5 29.5L73.143 29.7266L73.5 29.5ZM71.2295 26.5C70.9053 26.7716 70.9053 26.7716 70.9053 26.7716C70.9053 26.7716 70.9053 26.7716 70.9053 26.7716C70.9054 26.7716 70.9054 26.7717 70.9055 26.7718C70.9056 26.772 70.9059 26.7722 70.9062 26.7726C70.9069 26.7734 70.9079 26.7746 70.9093 26.7762C70.912 26.7794 70.9162 26.7842 70.9216 26.7905C70.9326 26.8033 70.9488 26.8223 70.9699 26.8469C71.0119 26.8963 71.0731 26.9685 71.1489 27.059C71.3006 27.2403 71.5109 27.495 71.7448 27.7886C72.2151 28.379 72.7717 29.1154 73.143 29.7266L73.5 29.5L73.857 29.2734C73.4626 28.6244 72.884 27.8608 72.4104 27.2663C72.1724 26.9674 71.9586 26.7084 71.8043 26.5241C71.7271 26.4318 71.6646 26.3582 71.6214 26.3075C71.5998 26.2821 71.583 26.2625 71.5715 26.2492C71.5658 26.2425 71.5614 26.2374 71.5584 26.2339C71.5569 26.2321 71.5557 26.2308 71.555 26.2299C71.5546 26.2294 71.5543 26.2291 71.5541 26.2289C71.5539 26.2287 71.5539 26.2286 71.5538 26.2286C71.5538 26.2285 71.5537 26.2285 71.5537 26.2285C71.5537 26.2284 71.5537 26.2284 71.2295 26.5ZM73.5 29.5L73.143 29.7266C73.4985 30.3116 73.8606 31.1186 74.1371 31.7904C74.2744 32.1241 74.3889 32.4203 74.4691 32.633C74.5091 32.7393 74.5405 32.8246 74.5619 32.8831C74.5725 32.9124 74.5807 32.9349 74.5861 32.9501C74.5888 32.9576 74.5909 32.9633 74.5922 32.9671C74.5929 32.969 74.5934 32.9704 74.5937 32.9713C74.5939 32.9717 74.594 32.9721 74.5941 32.9723C74.5941 32.9724 74.5941 32.9724 74.5941 32.9725C74.5941 32.9725 74.5941 32.9725 74.5941 32.9725C74.5941 32.9725 74.5941 32.9725 74.9808 32.8084C75.3674 32.6444 75.3674 32.6443 75.3674 32.6443C75.3673 32.6443 75.3673 32.6442 75.3673 32.6442C75.3673 32.6441 75.3672 32.644 75.3672 32.6438C75.3671 32.6435 75.3669 32.6431 75.3667 32.6425C75.3663 32.6414 75.3657 32.6398 75.365 32.6376C75.3635 32.6334 75.3613 32.6272 75.3584 32.6192C75.3526 32.6031 75.3441 32.5795 75.333 32.5492C75.3109 32.4886 75.2787 32.401 75.2377 32.2922C75.1557 32.0747 75.0386 31.7719 74.8982 31.4306C74.6191 30.7524 74.2408 29.9052 73.857 29.2734L73.5 29.5Z" fill="var(--stroke-0, black)"/>
<path id="Vector_3" d="M35.2838 13.5C35.2838 13.5 34.6453 10.0162 35.2838 7.95996C35.8876 6.01504 36.7259 5.06844 38.1518 3.67905C39.6562 2.21312 40.714 1.46956 42.6929 0.908904C44.6759 0.347094 45.9597 0.38056 47.951 0.908904C50.017 1.45708 51.2759 2.03953 52.7311 3.67905C53.9574 5.06068 54.5178 6.10768 54.8821 7.95996C55.1473 9.30812 54.8821 11.4855 54.8821 11.4855" stroke="var(--stroke-0, black)"/>
<path id="Vector _2" d="M46.7061 102L44.2058 101.5C44.2058 101.5 41.6857 103.943 41.2058 106C40.8952 107.331 40.9702 108.154 41.2058 109.5C41.5373 111.394 43.2058 114 43.2058 114C43.2058 114 44.0018 113 44.7058 113C45.4098 113 46.2058 114 46.2058 114C46.2058 114 47.0053 113.071 47.7058 113C48.3201 112.938 49.2061 114 49.2061 114C49.2061 114 50.8536 111.211 51.2058 109.5C51.4814 108.161 51.483 107.338 51.2058 106C50.7981 104.031 48.7061 101.5 48.7061 101.5L46.7061 102Z" fill="var(--fill-0, #FF363A)" stroke="var(--stroke-0, #FF363A)" stroke-width="0.8"/>
<circle id="Ellipse" cx="46" cy="99.5" r="4" fill="var(--fill-0, #FBBC05)"/>
<path id="Vector_4" d="M46 87.5V95.5" stroke="var(--stroke-0, black)" stroke-width="0.8"/>
</g>
</svg>
